<svg xmlns="http://www.w3.org/2000/svg" xmlns:xlink="http://www.w3.org/1999/xlink" viewBox="0 0 200 200" width="200" height="200" style="width: 100%; height: 100%; transform: translate3d(0px, 0px, 0px); content-visibility: visible;" preserveAspectRatio="xMidYMid meet"><defs><clipPath id="__lottie_element_861"><rect width="200" height="200" x="0" y="0"></rect></clipPath></defs><g clip-path="url(#__lottie_element_861)"><g style="display: block;" transform="matrix(0.9082839488983154,0,0,0.9082839488983154,100,100)" opacity="1"><g opacity="1" transform="matrix(1,0,0,1,0,0)"><path stroke-linecap="round" stroke-linejoin="round" fill-opacity="0" stroke="rgb(5,11,30)" stroke-opacity="1" stroke-width="13" d=" M42.832000732421875,-64.2490005493164 C31.003999710083008,-64.2490005493164 21.416000366210938,-54.65999984741211 21.416000366210938,-42.832000732421875 C21.416000366210938,-42.832000732421875 21.416000366210938,0 21.416000366210938,0 C21.416000366210938,0 21.416000366210938,42.832000732421875 21.416000366210938,42.832000732421875 C21.416000366210938,54.65999984741211 31.003999710083008,64.2490005493164 42.832000732421875,64.2490005493164 C54.65999984741211,64.2490005493164 64.2490005493164,54.65999984741211 64.2490005493164,42.832000732421875 C64.2490005493164,31.003999710083008 54.65999984741211,21.416000366210938 42.832000732421875,21.416000366210938 C42.832000732421875,21.416000366210938 0.10000000149011612,21.416000366210938 0.10000000149011612,21.416000366210938 C0.10000000149011612,21.416000366210938 -42.832000732421875,21.416000366210938 -42.832000732421875,21.416000366210938 C-54.65999984741211,21.416000366210938 -64.2490005493164,31.003999710083008 -64.2490005493164,42.832000732421875 C-64.2490005493164,54.65999984741211 -54.65999984741211,64.2490005493164 -42.832000732421875,64.2490005493164 C-31.003999710083008,64.2490005493164 -21.416000366210938,54.65999984741211 -21.416000366210938,42.832000732421875 C-21.416000366210938,42.832000732421875 -21.416000366210938,0 -21.416000366210938,0 C-21.416000366210938,0 -21.416000366210938,-42.832000732421875 -21.416000366210938,-42.832000732421875 C-21.416000366210938,-54.65999984741211 -31.003999710083008,-64.2490005493164 -42.832000732421875,-64.2490005493164 C-54.65999984741211,-64.2490005493164 -64.2490005493164,-54.65999984741211 -64.2490005493164,-42.832000732421875 C-64.2490005493164,-31.003999710083008 -54.65999984741211,-21.416000366210938 -42.832000732421875,-21.416000366210938 C-42.832000732421875,-21.416000366210938 -0.10000000149011612,-21.416000366210938 -0.10000000149011612,-21.416000366210938 C-0.10000000149011612,-21.416000366210938 42.832000732421875,-21.416000366210938 42.832000732421875,-21.416000366210938 C54.65999984741211,-21.416000366210938 64.2490005493164,-31.003999710083008 64.2490005493164,-42.832000732421875 C64.2490005493164,-54.65999984741211 54.65999984741211,-64.2490005493164 42.832000732421875,-64.2490005493164z"></path></g></g></g></svg>